<svg xmlns="http://www.w3.org/2000/svg" xmlns:xlink="http://www.w3.org/1999/xlink" width="500" zoomAndPan="magnify" viewBox="0 0 375 374.999991" height="500" preserveAspectRatio="xMidYMid meet" version="1.0"><defs><g/></defs><g fill="#000000" fill-opacity="1"><g transform="translate(76.944082, 237.084722)"><g><path d="M 42.59375 -147.09375 L 8.765625 -147.09375 L 20.84375 -201.46875 L 114.46875 -201.46875 L 73.390625 -54.375 L 118.40625 -54.375 L 106.328125 0 L 2.109375 0 Z M 42.59375 -147.09375 "/></g></g></g><g fill="#000000" fill-opacity="1"><g transform="translate(162.454724, 336.788508)"><g><path d="M 146.5 -21.453125 C 127.96875 -5.140625 108.535156 3.015625 88.203125 3.015625 C 76.117188 3.015625 64.535156 0.046875 53.453125 -5.890625 C 42.378906 -11.828125 33.019531 -20.132812 25.375 -30.8125 C 12.488281 -48.726562 6.046875 -71.078125 6.046875 -97.859375 C 6.046875 -117.597656 9.210938 -135.269531 15.546875 -150.875 C 21.890625 -166.476562 30.800781 -178.910156 42.28125 -188.171875 C 48.726562 -193.410156 55.773438 -197.4375 63.421875 -200.25 C 71.078125 -203.070312 78.734375 -204.484375 86.390625 -204.484375 C 89.203125 -204.484375 91.914062 -204.28125 94.53125 -203.875 C 97.15625 -203.476562 100.582031 -202.773438 104.8125 -201.765625 L 107.828125 -208.109375 L 148.3125 -189.390625 L 125.65625 -129.28125 C 120.414062 -136.320312 115.328125 -141.40625 110.390625 -144.53125 C 105.460938 -147.65625 99.773438 -149.21875 93.328125 -149.21875 C 73.398438 -149.21875 63.4375 -132.804688 63.4375 -99.984375 C 63.4375 -84.273438 65.847656 -72.085938 70.671875 -63.421875 C 75.503906 -54.765625 82.253906 -50.4375 90.921875 -50.4375 C 103.398438 -50.4375 114.976562 -59.296875 125.65625 -77.015625 Z M 146.5 -21.453125 "/></g></g></g></svg>